<mxfile host="app.diagrams.net" modified="2022-05-14T15:52:16.892Z" agent="5.0 (Windows NT 10.0; Win64; x64) AppleWebKit/537.36 (KHTML, like Gecko) Chrome/101.0.4951.64 Safari/537.36" etag="ylFyGLpUmBp4AGi5szBr" version="18.0.3" type="github">
  <diagram id="0840Ev4bOabCpobCQGCI" name="第 1 页">
    <mxGraphModel dx="1069" dy="576" grid="1" gridSize="10" guides="1" tooltips="1" connect="1" arrows="1" fold="1" page="1" pageScale="1" pageWidth="1920" pageHeight="1200" math="0" shadow="0">
      <root>
        <mxCell id="0" />
        <mxCell id="1" parent="0" />
        <mxCell id="u5m4Ud9F_nFu30M-4fOL-1" value="&lt;font style=&quot;font-size: 20px;&quot;&gt;rq&lt;/font&gt;" style="rounded=1;whiteSpace=wrap;html=1;fillColor=#85DE85;" vertex="1" parent="1">
          <mxGeometry x="320" y="200" width="120" height="40" as="geometry" />
        </mxCell>
        <mxCell id="u5m4Ud9F_nFu30M-4fOL-4" value="&lt;font style=&quot;font-size: 20px;&quot;&gt;ras_rq&lt;/font&gt;" style="rounded=1;whiteSpace=wrap;html=1;fillColor=#85DE85;" vertex="1" parent="1">
          <mxGeometry x="520" y="200" width="120" height="40" as="geometry" />
        </mxCell>
        <mxCell id="u5m4Ud9F_nFu30M-4fOL-5" value="&lt;font style=&quot;font-size: 20px;&quot;&gt;list_head queue&lt;/font&gt;" style="rounded=1;whiteSpace=wrap;html=1;fillColor=#85DE85;" vertex="1" parent="1">
          <mxGeometry x="720" y="200" width="200" height="40" as="geometry" />
        </mxCell>
        <mxCell id="u5m4Ud9F_nFu30M-4fOL-6" value="" style="endArrow=classic;html=1;rounded=0;fontSize=20;entryX=0;entryY=0.5;entryDx=0;entryDy=0;" edge="1" parent="1" target="u5m4Ud9F_nFu30M-4fOL-4">
          <mxGeometry width="50" height="50" relative="1" as="geometry">
            <mxPoint x="440" y="220" as="sourcePoint" />
            <mxPoint x="490" y="170" as="targetPoint" />
          </mxGeometry>
        </mxCell>
        <mxCell id="u5m4Ud9F_nFu30M-4fOL-7" value="" style="endArrow=classic;html=1;rounded=0;fontSize=20;entryX=0;entryY=0.5;entryDx=0;entryDy=0;" edge="1" parent="1">
          <mxGeometry width="50" height="50" relative="1" as="geometry">
            <mxPoint x="639.9999999999998" y="219.66" as="sourcePoint" />
            <mxPoint x="719.9999999999998" y="219.66" as="targetPoint" />
          </mxGeometry>
        </mxCell>
        <mxCell id="u5m4Ud9F_nFu30M-4fOL-8" value="" style="endArrow=classic;html=1;rounded=0;fontSize=20;" edge="1" parent="1">
          <mxGeometry width="50" height="50" relative="1" as="geometry">
            <mxPoint x="819.66" y="240" as="sourcePoint" />
            <mxPoint x="819.66" y="280" as="targetPoint" />
          </mxGeometry>
        </mxCell>
        <mxCell id="u5m4Ud9F_nFu30M-4fOL-11" value="list_head run_list" style="rounded=1;whiteSpace=wrap;html=1;fontSize=20;fillColor=#66B2FF;" vertex="1" parent="1">
          <mxGeometry x="720" y="280" width="200" height="40" as="geometry" />
        </mxCell>
        <mxCell id="u5m4Ud9F_nFu30M-4fOL-12" value="" style="endArrow=classic;html=1;rounded=0;fontSize=20;" edge="1" parent="1">
          <mxGeometry width="50" height="50" relative="1" as="geometry">
            <mxPoint x="819.6599999999999" y="320" as="sourcePoint" />
            <mxPoint x="819.6599999999999" y="360.0000000000001" as="targetPoint" />
          </mxGeometry>
        </mxCell>
        <mxCell id="u5m4Ud9F_nFu30M-4fOL-13" value="" style="endArrow=classic;html=1;rounded=0;fontSize=20;" edge="1" parent="1">
          <mxGeometry width="50" height="50" relative="1" as="geometry">
            <mxPoint x="819.6599999999999" y="400" as="sourcePoint" />
            <mxPoint x="819.6599999999999" y="440.0000000000001" as="targetPoint" />
          </mxGeometry>
        </mxCell>
        <mxCell id="u5m4Ud9F_nFu30M-4fOL-14" value="list_head run_list" style="rounded=1;whiteSpace=wrap;html=1;fontSize=20;gradientColor=none;fillColor=#66B2FF;" vertex="1" parent="1">
          <mxGeometry x="720" y="360" width="200" height="40" as="geometry" />
        </mxCell>
        <mxCell id="u5m4Ud9F_nFu30M-4fOL-18" value="" style="group" vertex="1" connectable="0" parent="1">
          <mxGeometry x="780" y="440" width="80" height="40" as="geometry" />
        </mxCell>
        <mxCell id="u5m4Ud9F_nFu30M-4fOL-15" value="" style="shape=waypoint;sketch=0;size=6;pointerEvents=1;points=[];fillColor=none;resizable=0;rotatable=0;perimeter=centerPerimeter;snapToPoint=1;fontSize=20;" vertex="1" parent="u5m4Ud9F_nFu30M-4fOL-18">
          <mxGeometry width="40" height="40" as="geometry" />
        </mxCell>
        <mxCell id="u5m4Ud9F_nFu30M-4fOL-16" value="" style="shape=waypoint;sketch=0;size=6;pointerEvents=1;points=[];fillColor=none;resizable=0;rotatable=0;perimeter=centerPerimeter;snapToPoint=1;fontSize=20;" vertex="1" parent="u5m4Ud9F_nFu30M-4fOL-18">
          <mxGeometry x="20" width="40" height="40" as="geometry" />
        </mxCell>
        <mxCell id="u5m4Ud9F_nFu30M-4fOL-17" value="" style="shape=waypoint;sketch=0;size=6;pointerEvents=1;points=[];fillColor=none;resizable=0;rotatable=0;perimeter=centerPerimeter;snapToPoint=1;fontSize=20;" vertex="1" parent="u5m4Ud9F_nFu30M-4fOL-18">
          <mxGeometry x="40" width="40" height="40" as="geometry" />
        </mxCell>
        <mxCell id="u5m4Ud9F_nFu30M-4fOL-24" value="" style="group;fillColor=default;" vertex="1" connectable="0" parent="1">
          <mxGeometry x="320" y="280" width="399.9999999999998" height="40" as="geometry" />
        </mxCell>
        <mxCell id="u5m4Ud9F_nFu30M-4fOL-19" value="task_struct" style="rounded=1;whiteSpace=wrap;html=1;fontSize=20;fillColor=#66B2FF;" vertex="1" parent="u5m4Ud9F_nFu30M-4fOL-24">
          <mxGeometry width="120" height="40" as="geometry" />
        </mxCell>
        <mxCell id="u5m4Ud9F_nFu30M-4fOL-21" value="sched_ras_entity" style="rounded=1;whiteSpace=wrap;html=1;fontSize=20;fillColor=#66B2FF;" vertex="1" parent="u5m4Ud9F_nFu30M-4fOL-24">
          <mxGeometry x="175" width="170" height="40" as="geometry" />
        </mxCell>
        <mxCell id="u5m4Ud9F_nFu30M-4fOL-22" value="" style="endArrow=classic;html=1;rounded=0;fontSize=20;entryX=0;entryY=0.5;entryDx=0;entryDy=0;" edge="1" parent="u5m4Ud9F_nFu30M-4fOL-24" target="u5m4Ud9F_nFu30M-4fOL-21">
          <mxGeometry width="50" height="50" relative="1" as="geometry">
            <mxPoint x="120" y="20" as="sourcePoint" />
            <mxPoint x="170" y="-30" as="targetPoint" />
          </mxGeometry>
        </mxCell>
        <mxCell id="u5m4Ud9F_nFu30M-4fOL-23" value="" style="endArrow=classic;html=1;rounded=0;fontSize=20;entryX=0;entryY=0.5;entryDx=0;entryDy=0;" edge="1" parent="u5m4Ud9F_nFu30M-4fOL-24">
          <mxGeometry width="50" height="50" relative="1" as="geometry">
            <mxPoint x="344.9999999999998" y="19.66000000000014" as="sourcePoint" />
            <mxPoint x="399.9999999999998" y="19.66000000000014" as="targetPoint" />
          </mxGeometry>
        </mxCell>
        <mxCell id="u5m4Ud9F_nFu30M-4fOL-25" value="" style="group" vertex="1" connectable="0" parent="1">
          <mxGeometry x="320" y="360" width="399.9999999999998" height="40" as="geometry" />
        </mxCell>
        <mxCell id="u5m4Ud9F_nFu30M-4fOL-26" value="task_struct" style="rounded=1;whiteSpace=wrap;html=1;fontSize=20;fillColor=#66B2FF;" vertex="1" parent="u5m4Ud9F_nFu30M-4fOL-25">
          <mxGeometry width="120" height="40" as="geometry" />
        </mxCell>
        <mxCell id="u5m4Ud9F_nFu30M-4fOL-27" value="sched_ras_entity" style="rounded=1;whiteSpace=wrap;html=1;fontSize=20;fillColor=#66B2FF;" vertex="1" parent="u5m4Ud9F_nFu30M-4fOL-25">
          <mxGeometry x="175" width="170" height="40" as="geometry" />
        </mxCell>
        <mxCell id="u5m4Ud9F_nFu30M-4fOL-28" value="" style="endArrow=classic;html=1;rounded=0;fontSize=20;entryX=0;entryY=0.5;entryDx=0;entryDy=0;" edge="1" parent="u5m4Ud9F_nFu30M-4fOL-25" target="u5m4Ud9F_nFu30M-4fOL-27">
          <mxGeometry width="50" height="50" relative="1" as="geometry">
            <mxPoint x="120" y="20" as="sourcePoint" />
            <mxPoint x="170" y="-30" as="targetPoint" />
          </mxGeometry>
        </mxCell>
        <mxCell id="u5m4Ud9F_nFu30M-4fOL-29" value="" style="endArrow=classic;html=1;rounded=0;fontSize=20;entryX=0;entryY=0.5;entryDx=0;entryDy=0;" edge="1" parent="u5m4Ud9F_nFu30M-4fOL-25">
          <mxGeometry width="50" height="50" relative="1" as="geometry">
            <mxPoint x="344.9999999999998" y="19.66000000000014" as="sourcePoint" />
            <mxPoint x="399.9999999999998" y="19.66000000000014" as="targetPoint" />
          </mxGeometry>
        </mxCell>
        <mxCell id="u5m4Ud9F_nFu30M-4fOL-30" value="" style="group" vertex="1" connectable="0" parent="1">
          <mxGeometry x="340" y="440" width="80" height="40" as="geometry" />
        </mxCell>
        <mxCell id="u5m4Ud9F_nFu30M-4fOL-31" value="" style="shape=waypoint;sketch=0;size=6;pointerEvents=1;points=[];fillColor=none;resizable=0;rotatable=0;perimeter=centerPerimeter;snapToPoint=1;fontSize=20;" vertex="1" parent="u5m4Ud9F_nFu30M-4fOL-30">
          <mxGeometry width="40" height="40" as="geometry" />
        </mxCell>
        <mxCell id="u5m4Ud9F_nFu30M-4fOL-32" value="" style="shape=waypoint;sketch=0;size=6;pointerEvents=1;points=[];fillColor=none;resizable=0;rotatable=0;perimeter=centerPerimeter;snapToPoint=1;fontSize=20;" vertex="1" parent="u5m4Ud9F_nFu30M-4fOL-30">
          <mxGeometry x="20" width="40" height="40" as="geometry" />
        </mxCell>
        <mxCell id="u5m4Ud9F_nFu30M-4fOL-33" value="" style="shape=waypoint;sketch=0;size=6;pointerEvents=1;points=[];fillColor=none;resizable=0;rotatable=0;perimeter=centerPerimeter;snapToPoint=1;fontSize=20;" vertex="1" parent="u5m4Ud9F_nFu30M-4fOL-30">
          <mxGeometry x="40" width="40" height="40" as="geometry" />
        </mxCell>
        <mxCell id="u5m4Ud9F_nFu30M-4fOL-34" value="" style="group" vertex="1" connectable="0" parent="1">
          <mxGeometry x="540" y="440" width="80" height="40" as="geometry" />
        </mxCell>
        <mxCell id="u5m4Ud9F_nFu30M-4fOL-35" value="" style="shape=waypoint;sketch=0;size=6;pointerEvents=1;points=[];fillColor=none;resizable=0;rotatable=0;perimeter=centerPerimeter;snapToPoint=1;fontSize=20;" vertex="1" parent="u5m4Ud9F_nFu30M-4fOL-34">
          <mxGeometry width="40" height="40" as="geometry" />
        </mxCell>
        <mxCell id="u5m4Ud9F_nFu30M-4fOL-36" value="" style="shape=waypoint;sketch=0;size=6;pointerEvents=1;points=[];fillColor=none;resizable=0;rotatable=0;perimeter=centerPerimeter;snapToPoint=1;fontSize=20;" vertex="1" parent="u5m4Ud9F_nFu30M-4fOL-34">
          <mxGeometry x="20" width="40" height="40" as="geometry" />
        </mxCell>
        <mxCell id="u5m4Ud9F_nFu30M-4fOL-37" value="" style="shape=waypoint;sketch=0;size=6;pointerEvents=1;points=[];fillColor=none;resizable=0;rotatable=0;perimeter=centerPerimeter;snapToPoint=1;fontSize=20;" vertex="1" parent="u5m4Ud9F_nFu30M-4fOL-34">
          <mxGeometry x="40" width="40" height="40" as="geometry" />
        </mxCell>
      </root>
    </mxGraphModel>
  </diagram>
</mxfile>
